<svg xmlns="http://www.w3.org/2000/svg" width="16.143" height="16.143" viewBox="0 0 16.143 16.143">
  <g id="Grupo_9406" data-name="Grupo 9406" transform="translate(0 0)">
    <path id="Caminho_10876" data-name="Caminho 10876" d="M11.9,6.988l-.97,3.235a.781.781,0,0,0,.748,1.005A.772.772,0,0,0,11.9,11.2l3.235-.97a.779.779,0,0,0,.328-.2L21.4,4.1a.781.781,0,0,0,0-1.1L19.132.729a.781.781,0,0,0-1.1,0L12.1,6.66A.782.782,0,0,0,11.9,6.988Zm1.44.637,5.239-5.24,1.161,1.161L14.5,8.786l-1.657.5Z" transform="translate(-5.483 -0.5)" fill="#fff"/>
    <path id="Caminho_10877" data-name="Caminho 10877" d="M15.862,7.791a.781.781,0,0,0-.781.781v5.208a1.3,1.3,0,0,1-1.3,1.3H3.364a1.3,1.3,0,0,1-1.3-1.3V3.364a1.3,1.3,0,0,1,1.3-1.3H8.572A.781.781,0,1,0,8.572.5H3.364A2.868,2.868,0,0,0,.5,3.364V13.779a2.868,2.868,0,0,0,2.864,2.864H13.779a2.868,2.868,0,0,0,2.864-2.864V8.572A.781.781,0,0,0,15.862,7.791Z" transform="translate(-0.5 -0.5)" fill="#fff"/>
  </g>
</svg>
