<svg xmlns="http://www.w3.org/2000/svg" xmlns:xlink="http://www.w3.org/1999/xlink" width="76.705" height="76.726" viewBox="0 0 76.705 76.726"><defs><linearGradient id="a" x1="0.5" x2="0.5" y2="1" gradientUnits="objectBoundingBox"><stop offset="0" stop-color="#4aaefd"/><stop offset="1" stop-color="#7f4afc"/></linearGradient></defs><path d="M42.623,44.2,33.8,52.98a3.852,3.852,0,1,0,5.447,5.447L54.591,43.084a3.966,3.966,0,0,0,0-5.447L39.247,22.293A3.852,3.852,0,0,0,33.8,27.74l8.823,8.784H5.836a3.836,3.836,0,1,0,0,7.672ZM40.36,2A38.36,38.36,0,0,0,5.836,23.29a3.86,3.86,0,0,0,6.9,3.452,30.844,30.844,0,1,1,.153,27.235,3.86,3.86,0,1,0-6.9,3.452A38.36,38.36,0,1,0,40.36,2Z" transform="translate(-2 -2)" fill="url(#a)"/></svg>