<svg xmlns="http://www.w3.org/2000/svg" xmlns:xlink="http://www.w3.org/1999/xlink" width="42" height="42" viewBox="0 0 42 42">
  <defs>
    <linearGradient id="linear-gradient" x1="0.5" x2="0.5" y2="1" gradientUnits="objectBoundingBox">
      <stop offset="0" stop-color="#4aaefd"/>
      <stop offset="1" stop-color="#7f4afc"/>
    </linearGradient>
    <clipPath id="clip-path">
      <rect id="Rectangle_2209" data-name="Rectangle 2209" width="14.259" height="23.266" fill="#fafafa"/>
    </clipPath>
  </defs>
  <g id="Group_10507" data-name="Group 10507" transform="translate(-420 695)">
    <circle id="Ellipse_565" data-name="Ellipse 565" cx="21" cy="21" r="21" transform="translate(420 -695)" fill="url(#linear-gradient)"/>
    <g id="Group_10469" data-name="Group 10469" transform="translate(433.738 -685.651)">
      <g id="Group_7593" data-name="Group 7593" transform="translate(0 0)" clip-path="url(#clip-path)">
        <path id="Path_2865" data-name="Path 2865" d="M21.119,98.638a1.03,1.03,0,1,1-1.03-1.03,1.03,1.03,0,0,1,1.03,1.03" transform="translate(-14.918 -76.403)" fill="#fafafa"/>
        <path id="Path_2866" data-name="Path 2866" d="M58.211,61.761a1.03,1.03,0,1,1-1.03-1.03,1.03,1.03,0,0,1,1.03,1.03" transform="translate(-43.952 -47.537)" fill="#fafafa"/>
        <path id="Path_2867" data-name="Path 2867" d="M14.353,7.093v4.189h-1.99V7.093a5.1,5.1,0,0,0-10.208,0v0H.165v0a7.094,7.094,0,0,1,14.188,0" transform="translate(-0.129 0)" fill="#fafafa"/>
        <path id="Path_2868" data-name="Path 2868" d="M4.065,62.213,2.752,63.708l-.163-.141A7.1,7.1,0,0,1,.165,58.233V53.46h1.99v4.773A5.108,5.108,0,0,0,3.9,62.07Z" transform="translate(-0.129 -41.846)" fill="#fafafa"/>
        <path id="Path_2869" data-name="Path 2869" d="M2.061,39.16a1.03,1.03,0,1,1-1.03-1.03,1.03,1.03,0,0,1,1.03,1.03" transform="translate(0 -29.846)" fill="#fafafa"/>
      </g>
    </g>
  </g>
</svg>
