<svg id="Layer_2" data-name="Layer 2" xmlns="http://www.w3.org/2000/svg" width="24" height="24" viewBox="0 0 24 24">
  <g id="eye">
    <rect id="Rectangle_2420" data-name="Rectangle 2420" width="24" height="24" fill="#fff" opacity="0"/>
    <path id="Path_88117" data-name="Path 88117" d="M21.87,11.5c-.64-1.11-4.16-6.68-10.14-6.5C6.2,5.14,3,10,2.13,11.5a1,1,0,0,0,0,1c.63,1.09,4,6.5,9.89,6.5h.25c5.53-.14,8.74-5,9.6-6.5A1,1,0,0,0,21.87,11.5ZM12.22,17c-4.31.1-7.12-3.59-8-5,1-1.61,3.61-4.9,7.61-5,4.29-.11,7.11,3.59,8,5-1.03,1.61-3.61,4.9-7.61,5Z" fill="#fff"/>
    <path id="Path_88118" data-name="Path 88118" d="M12,8.5A3.5,3.5,0,1,0,15.5,12,3.5,3.5,0,0,0,12,8.5Zm0,5A1.5,1.5,0,1,1,13.5,12,1.5,1.5,0,0,1,12,13.5Z" fill="#fff"/>
  </g>
</svg>
