<svg xmlns="http://www.w3.org/2000/svg" xmlns:xlink="http://www.w3.org/1999/xlink" width="18.6" height="24.665" viewBox="0 0 18.6 24.665"><defs><clipPath id="a"><rect width="18.6" height="24.665" fill="#fff"/></clipPath></defs><g transform="translate(0 0)"><g transform="translate(0 0)" clip-path="url(#a)"><path d="M9.927,0c.473.078.951.134,1.419.24a9.109,9.109,0,0,1,5.081,3.1A9.167,9.167,0,0,1,18.5,7.977a10.583,10.583,0,0,1-.7,5.354A25.726,25.726,0,0,1,14,19.88a40.754,40.754,0,0,1-3.914,4.406.994.994,0,0,1-1.544.022A34.478,34.478,0,0,1,2.7,17.329a17.633,17.633,0,0,1-2.475-5.86,9.282,9.282,0,0,1,1.89-8.052A9.034,9.034,0,0,1,8.036.1c.213-.03.426-.064.639-.1ZM9.284,13.733A4.433,4.433,0,1,0,4.868,9.274a4.432,4.432,0,0,0,4.416,4.459" transform="translate(0 0)" fill="#fff"/></g></g></svg>