<svg xmlns="http://www.w3.org/2000/svg" width="368" height="368" viewBox="0 0 368 368">
  <g id="Layer_2" data-name="Layer 2" transform="translate(0.304)">
    <g id="eye-off">
      <rect id="Retângulo_2750" data-name="Retângulo 2750" width="368" height="368" transform="translate(-0.304)" opacity="0"/>
      <path id="Caminho_89386" data-name="Caminho 89386" d="M29.257,7.5A15.383,15.383,0,1,0,7.5,29.257l86.255,86.255a53.622,53.622,0,0,0,72.62,72.62l86.255,86.255a15.383,15.383,0,1,0,21.755-21.755ZM140.945,163.926a22.981,22.981,0,0,1-22.981-22.981v-1.072l23.9,23.9Z" transform="translate(42.903 42.903)" fill="#fff"/>
      <path id="Caminho_89387" data-name="Caminho 89387" d="M158.634,188.909c-65.879,1.532-109.083-55-122.565-76.6A209.9,209.9,0,0,1,70.387,70.634l-22.368-21.6a243.445,243.445,0,0,0-43.97,55.614,15.321,15.321,0,0,0,0,15.321c9.652,16.7,61.283,99.584,151.522,99.584h3.83a145.241,145.241,0,0,0,49.486-10.265l-24.207-24.207A118.582,118.582,0,0,1,158.634,188.909Zm147.845-84.264C296.674,87.64,242.592,2.3,151.127,5.061a145.24,145.24,0,0,0-49.486,10.265l24.207,24.207a118.582,118.582,0,0,1,26.045-3.83c65.726-1.685,108.93,55,122.565,76.6a209.893,209.893,0,0,1-35.084,41.672l23.134,21.6a243.445,243.445,0,0,0,44.583-55.614,15.321,15.321,0,0,0-.613-15.321Z" transform="translate(28.584 71.542)" fill="#fff"/>
    </g>
  </g>
</svg>
