<svg xmlns="http://www.w3.org/2000/svg" width="103.787" height="103.787" viewBox="0 0 103.787 103.787">
  <g id="Group_10506" data-name="Group 10506" transform="translate(-135.606 -237)">
    <g id="Group_7672" data-name="Group 7672" transform="translate(-29.394 134)">
      <path id="Path_2907" data-name="Path 2907" d="M51.893,0A51.893,51.893,0,1,1,0,51.893,51.893,51.893,0,0,1,51.893,0Z" transform="translate(165 103)" fill="#fff"/>
    </g>
    <path id="Path_2908" data-name="Path 2908" d="M21.932,50.812a100.958,100.958,0,0,1,16.221,0,66.148,66.148,0,0,1,8.759,1.1c6.261,1.268,10.349,3.336,12.1,6.673a9.235,9.235,0,0,1,0,8.307c-1.752,3.336-5.677,5.538-12.166,6.673A62.931,62.931,0,0,1,38.088,74.7a74.7,74.7,0,0,1-8.208.3H24.916a23.667,23.667,0,0,0-3.017-.2,60.021,60.021,0,0,1-8.759-1.1c-6.261-1.2-10.349-3.336-12.1-6.673A9.149,9.149,0,0,1,0,62.823a9.049,9.049,0,0,1,1.006-4.237c1.719-3.336,5.807-5.5,12.133-6.673A64,64,0,0,1,21.932,50.812ZM30.01,0C40.886,0,49.7,9.067,49.7,20.251S40.886,40.5,30.01,40.5,10.317,31.436,10.317,20.251,19.134,0,30.01,0Z" transform="translate(158 251.893)" fill="#200e32" opacity="0.051"/>
  </g>
</svg>
