<svg xmlns="http://www.w3.org/2000/svg" xmlns:xlink="http://www.w3.org/1999/xlink" width="42" height="42" viewBox="0 0 42 42">
  <defs>
    <linearGradient id="linear-gradient" x1="0.5" x2="0.5" y2="1" gradientUnits="objectBoundingBox">
      <stop offset="0" stop-color="#4aaefd"/>
      <stop offset="1" stop-color="#7f4afc"/>
    </linearGradient>
  </defs>
  <g id="Group_10509" data-name="Group 10509" transform="translate(-4250 -6269)">
    <circle id="Ellipse_564" data-name="Ellipse 564" cx="21" cy="21" r="21" transform="translate(4250 6269)" fill="url(#linear-gradient)"/>
    <g id="Group_10508" data-name="Group 10508" transform="translate(3247.5 7514.895)">
      <g id="Group_7622" data-name="Group 7622" transform="translate(1014.414 -1234.713)">
        <path id="Path_2895" data-name="Path 2895" d="M18.686,6.239l-.636-1.1a1.954,1.954,0,0,0-2.665-.72h0a1.945,1.945,0,0,1-2.665-.692,1.87,1.87,0,0,1-.262-.935h0A1.954,1.954,0,0,0,10.5.778H9.222A1.945,1.945,0,0,0,7.277,2.732h0A1.954,1.954,0,0,1,5.323,4.659,1.87,1.87,0,0,1,4.388,4.4h0a1.954,1.954,0,0,0-2.665.72L1.04,6.239A1.954,1.954,0,0,0,1.751,8.9h0a1.954,1.954,0,0,1,0,3.385h0a1.945,1.945,0,0,0-.711,2.656h0l.645,1.113a1.954,1.954,0,0,0,2.665.757h0a1.936,1.936,0,0,1,2.656.711,1.87,1.87,0,0,1,.262.935h0a1.954,1.954,0,0,0,1.954,1.954H10.5a1.954,1.954,0,0,0,1.954-1.945h0a1.945,1.945,0,0,1,1.954-1.954,1.992,1.992,0,0,1,.935.262h0a1.954,1.954,0,0,0,2.665-.711h0l.673-1.122a1.945,1.945,0,0,0-.711-2.665h0a1.945,1.945,0,0,1-.711-2.665,1.917,1.917,0,0,1,.711-.711h0a1.954,1.954,0,0,0,.711-2.656h0Z" transform="translate(-0.779 -0.778)" fill="none" stroke="#fff" stroke-linecap="round" stroke-linejoin="round" stroke-width="2" fill-rule="evenodd"/>
        <ellipse id="Ellipse_453" data-name="Ellipse 453" cx="2.693" cy="2.693" rx="2.693" ry="2.693" transform="translate(6.396 7.126)" fill="none" stroke="#fff" stroke-linecap="round" stroke-linejoin="round" stroke-width="2"/>
      </g>
    </g>
  </g>
</svg>
