<svg xmlns="http://www.w3.org/2000/svg" xmlns:xlink="http://www.w3.org/1999/xlink" width="45" height="45" viewBox="0 0 45 45">
  <defs>
    <clipPath id="clip-path">
      <circle id="Elipse_561" data-name="Elipse 561" cx="22.5" cy="22.5" r="22.5" transform="translate(781 -1247)" fill="#fff" stroke="#707070" stroke-width="1" opacity="0.141"/>
    </clipPath>
  </defs>
  <g id="Grupo_de_máscara_27" data-name="Grupo de máscara 27" transform="translate(-781 1247)" clip-path="url(#clip-path)">
    <path id="Caminho_2892" data-name="Caminho 2892" d="M16.868,8.938H6.956a.991.991,0,0,0,0,1.982h9.912a.991.991,0,1,0,0-1.982ZM12.9,12.9H6.956a.991.991,0,0,0,0,1.982H12.9a.991.991,0,1,0,0-1.982ZM11.912,2A9.912,9.912,0,0,0,2,11.912a9.8,9.8,0,0,0,2.24,6.274L2.257,20.168a.966.966,0,0,0,.733,1.655h8.921A9.912,9.912,0,0,0,11.912,2Zm0,17.841H5.38L6.3,18.92a.991.991,0,0,0,0-1.4,7.929,7.929,0,1,1,5.61,2.319Z" transform="translate(791.485 -1236.9)" fill="#fff"/>
  </g>
</svg>
