<svg xmlns="http://www.w3.org/2000/svg" width="50.001" height="7.882" viewBox="0 0 50.001 7.882">
  <g id="Grupo_7616" data-name="Grupo 7616" transform="translate(0 0)">
    <path id="Caminho_2877" data-name="Caminho 2877" d="M4.144,0l-1.281,2.6L0,3.01,2.072,5.03,1.583,7.882,4.144,6.536,6.7,7.882,6.216,5.03,8.289,3.01,5.425,2.595Z" fill="#ffd550"/>
    <path id="Caminho_2878" data-name="Caminho 2878" d="M14.572,0l-1.281,2.6-2.863.415L12.5,5.03l-.489,2.852,2.561-1.346,2.561,1.346L16.644,5.03l2.072-2.02-2.863-.415Z" fill="#ffd550"/>
    <path id="Caminho_2879" data-name="Caminho 2879" d="M25,0l-1.281,2.6-2.864.415,2.073,2.02-.489,2.852L25,6.536l2.561,1.346L27.072,5.03l2.072-2.02-2.863-.415Z" fill="#ffd550"/>
    <path id="Caminho_2880" data-name="Caminho 2880" d="M35.428,0l-1.28,2.6-2.864.415,2.072,2.02-.489,2.852,2.561-1.346,2.561,1.346L37.5,5.03l2.072-2.02-2.864-.415Z" fill="#ffd550"/>
    <path id="Caminho_2881" data-name="Caminho 2881" d="M45.856,0l-1.281,2.6-2.863.415,2.072,2.02-.489,2.852,2.561-1.346,2.561,1.346L47.928,5.03,50,3.01l-2.864-.415Z" fill="#edeff1"/>
    <path id="Caminho_2882" data-name="Caminho 2882" d="M45.856,0l-1.281,2.6-2.863.415,2.072,2.02-.489,2.852,2.561-1.346Z" fill="#ffd550"/>
  </g>
</svg>
